<svg width="462" height="80" viewBox="0 0 462 80" fill="none" xmlns="http://www.w3.org/2000/svg">
<path d="M116.432 55L97.376 34.984V55H95.792V19H97.376V32.056L112.4 19H114.656L97.808 33.4L118.544 55H116.432ZM130.14 55.768C127.964 55.768 125.996 55.24 124.236 54.184C122.476 53.096 121.1 51.672 120.108 49.912C119.116 48.12 118.62 46.184 118.62 44.104C118.62 42.056 119.116 40.152 120.108 38.392C121.132 36.632 122.508 35.24 124.236 34.216C125.996 33.16 127.948 32.632 130.092 32.632C132.204 32.632 134.124 33.16 135.852 34.216C137.612 35.24 138.988 36.632 139.98 38.392C140.972 40.152 141.468 42.056 141.468 44.104C141.468 46.248 140.988 48.216 140.028 50.008C139.068 51.768 137.724 53.176 135.996 54.232C134.3 55.256 132.348 55.768 130.14 55.768ZM130.14 54.424C131.964 54.424 133.628 53.96 135.132 53.032C136.636 52.104 137.804 50.872 138.636 49.336C139.5 47.768 139.932 46.056 139.932 44.2C139.932 42.376 139.5 40.68 138.636 39.112C137.772 37.544 136.588 36.296 135.084 35.368C133.58 34.44 131.916 33.976 130.092 33.976C128.268 33.976 126.588 34.456 125.052 35.416C123.548 36.344 122.348 37.592 121.452 39.16C120.588 40.728 120.156 42.424 120.156 44.248C120.156 46.072 120.588 47.768 121.452 49.336C122.348 50.872 123.548 52.104 125.052 53.032C126.588 53.96 128.284 54.424 130.14 54.424ZM146.366 33.4H147.902V45.544H162.542V33.4H164.078V55H162.542V46.888H147.902V55H146.366V33.4ZM181.528 55.288H181.144C179.064 55.288 177.128 54.776 175.336 53.752C173.576 52.696 172.168 51.304 171.112 49.576C170.088 47.848 169.576 45.992 169.576 44.008C169.576 42.024 170.104 40.184 171.16 38.488C172.216 36.76 173.624 35.4 175.384 34.408C177.176 33.384 179.096 32.872 181.144 32.872H181.528V24.808H183.064V32.872H183.304C185.352 32.872 187.24 33.384 188.968 34.408C190.696 35.4 192.056 36.744 193.048 38.44C194.072 40.136 194.584 41.992 194.584 44.008C194.584 46.024 194.088 47.896 193.096 49.624C192.104 51.352 190.744 52.728 189.016 53.752C187.32 54.776 185.448 55.288 183.4 55.288H183.064V64.504H181.528V55.288ZM181.528 53.944V34.216H181.144C179.384 34.216 177.72 34.68 176.152 35.608C174.616 36.504 173.368 37.72 172.408 39.256C171.48 40.76 171.016 42.376 171.016 44.104C171.016 45.832 171.48 47.464 172.408 49C173.368 50.504 174.616 51.704 176.152 52.6C177.72 53.496 179.384 53.944 181.144 53.944H181.528ZM183.352 53.944C185.112 53.944 186.728 53.496 188.2 52.6C189.704 51.704 190.888 50.504 191.752 49C192.648 47.496 193.096 45.864 193.096 44.104C193.096 42.344 192.648 40.712 191.752 39.208C190.888 37.672 189.704 36.456 188.2 35.56C186.696 34.664 185.064 34.216 183.304 34.216H183.064V53.944H183.352ZM199.616 33.4H201.104V52.84L216.608 33.4H218V55H216.512V35.608L200.96 55H199.616V33.4ZM225.209 33.448H234.761V34.792H226.745V55H225.209V33.448ZM247.263 54.952L236.943 33.4H238.575L248.079 53.224L257.535 33.4H259.023L244.191 64.6H242.703L247.263 54.952ZM262.274 33.4H263.81V38.68C264.674 36.952 266.018 35.56 267.842 34.504C269.666 33.416 271.586 32.872 273.602 32.872C275.682 32.872 277.586 33.384 279.314 34.408C281.074 35.432 282.466 36.808 283.49 38.536C284.514 40.264 285.026 42.152 285.026 44.2C285.026 46.248 284.514 48.136 283.49 49.864C282.466 51.592 281.074 52.968 279.314 53.992C277.586 55.016 275.682 55.528 273.602 55.528C271.65 55.528 269.762 55 267.938 53.944C266.146 52.888 264.77 51.496 263.81 49.768V64.6H262.274V33.4ZM273.698 54.184C275.458 54.184 277.09 53.736 278.594 52.84C280.098 51.912 281.282 50.696 282.146 49.192C283.042 47.656 283.49 45.992 283.49 44.2C283.49 42.44 283.042 40.792 282.146 39.256C281.25 37.72 280.05 36.504 278.546 35.608C277.042 34.68 275.41 34.216 273.65 34.216C271.89 34.216 270.242 34.68 268.706 35.608C267.202 36.536 265.986 37.768 265.058 39.304C264.162 40.84 263.714 42.488 263.714 44.248C263.714 46.008 264.162 47.656 265.058 49.192C265.986 50.696 267.218 51.912 268.754 52.84C270.29 53.736 271.938 54.184 273.698 54.184ZM300.013 55.528C297.965 55.528 296.061 55.016 294.301 53.992C292.541 52.968 291.149 51.592 290.125 49.864C289.101 48.104 288.589 46.216 288.589 44.2C288.589 42.184 289.101 40.312 290.125 38.584C291.149 36.824 292.541 35.432 294.301 34.408C296.061 33.384 297.965 32.872 300.013 32.872C302.093 32.872 304.061 33.432 305.917 34.552C307.773 35.64 309.069 37.064 309.805 38.824V33.4H311.341V55H309.805V49.624C308.941 51.416 307.597 52.856 305.773 53.944C303.981 55 302.061 55.528 300.013 55.528ZM300.109 54.184C301.869 54.184 303.501 53.736 305.005 52.84C306.509 51.912 307.693 50.696 308.557 49.192C309.453 47.656 309.901 45.992 309.901 44.2C309.901 42.44 309.453 40.792 308.557 39.256C307.661 37.72 306.461 36.504 304.957 35.608C303.453 34.68 301.821 34.216 300.061 34.216C298.301 34.216 296.653 34.68 295.117 35.608C293.613 36.536 292.397 37.768 291.469 39.304C290.573 40.84 290.125 42.488 290.125 44.248C290.125 46.008 290.573 47.656 291.469 49.192C292.397 50.696 293.629 51.912 295.165 52.84C296.701 53.736 298.349 54.184 300.109 54.184ZM323.351 34.792H315.095V33.448H333.143V34.792H324.887V55H323.351V34.792ZM345.249 55.768C343.073 55.768 341.105 55.24 339.345 54.184C337.585 53.096 336.209 51.672 335.217 49.912C334.225 48.12 333.729 46.184 333.729 44.104C333.729 42.056 334.225 40.152 335.217 38.392C336.241 36.632 337.617 35.24 339.345 34.216C341.105 33.16 343.057 32.632 345.201 32.632C347.313 32.632 349.233 33.16 350.961 34.216C352.721 35.24 354.097 36.632 355.089 38.392C356.081 40.152 356.577 42.056 356.577 44.104C356.577 46.248 356.097 48.216 355.137 50.008C354.177 51.768 352.833 53.176 351.105 54.232C349.409 55.256 347.457 55.768 345.249 55.768ZM345.249 54.424C347.073 54.424 348.737 53.96 350.241 53.032C351.745 52.104 352.913 50.872 353.745 49.336C354.609 47.768 355.041 46.056 355.041 44.2C355.041 42.376 354.609 40.68 353.745 39.112C352.881 37.544 351.697 36.296 350.193 35.368C348.689 34.44 347.025 33.976 345.201 33.976C343.377 33.976 341.697 34.456 340.161 35.416C338.657 36.344 337.457 37.592 336.561 39.16C335.697 40.728 335.265 42.424 335.265 44.248C335.265 46.072 335.697 47.768 336.561 49.336C337.457 50.872 338.657 52.104 340.161 53.032C341.697 53.96 343.393 54.424 345.249 54.424ZM361.368 33.4H362.904V38.68C363.768 36.952 365.112 35.56 366.936 34.504C368.76 33.416 370.68 32.872 372.696 32.872C374.776 32.872 376.68 33.384 378.408 34.408C380.168 35.432 381.56 36.808 382.584 38.536C383.608 40.264 384.12 42.152 384.12 44.2C384.12 46.248 383.608 48.136 382.584 49.864C381.56 51.592 380.168 52.968 378.408 53.992C376.68 55.016 374.776 55.528 372.696 55.528C370.744 55.528 368.856 55 367.032 53.944C365.24 52.888 363.864 51.496 362.904 49.768V64.6H361.368V33.4ZM372.792 54.184C374.552 54.184 376.184 53.736 377.688 52.84C379.192 51.912 380.376 50.696 381.24 49.192C382.136 47.656 382.584 45.992 382.584 44.2C382.584 42.44 382.136 40.792 381.24 39.256C380.344 37.72 379.144 36.504 377.64 35.608C376.136 34.68 374.504 34.216 372.744 34.216C370.984 34.216 369.336 34.68 367.8 35.608C366.296 36.536 365.08 37.768 364.152 39.304C363.256 40.84 362.808 42.488 362.808 44.248C362.808 46.008 363.256 47.656 364.152 49.192C365.08 50.696 366.312 51.912 367.848 52.84C369.384 53.736 371.032 54.184 372.792 54.184ZM400.053 19H422.709V55H421.125V20.392H401.637V55H400.053V19ZM450.745 55L431.689 34.984V55H430.105V19H431.689V32.056L446.713 19H448.969L432.121 33.4L452.857 55H450.745Z" fill="black"/>
<path d="M50.225 68.0288L28.0673 64.0135V6.79231L49.7481 1L50.225 68.0288Z" stroke="black" stroke-width="1.5" stroke-linecap="round" stroke-linejoin="round"/>
<path d="M50.225 68.0288L66.2788 54.6346V19.3173L49.7481 1M30.1981 64.5673L27 70.2827L48.9923 76L48.7462 68.0615M65.7558 55.5827L66.5346 60.1L61.125 59.1769" stroke="black" stroke-width="1.5" stroke-linecap="round" stroke-linejoin="round"/>
<path d="M37.0904 8.85962L40.3019 24.2M42.6423 8.8577L35.0712 23.6096M45.4539 13.8192L32.5365 18.6904M44.4519 20.2308L33.5115 13.1538M37.5481 46.85L40.375 62.9615M42.7289 48.2942L35.1827 60.8462M44.6712 60.0404C44.3962 60.0404 33.2904 49.7712 33.2904 49.7712M45.6096 53.9442L32.55 55.6115M40.2173 43.55L36.7942 26.8327M42.5192 27.4692L34.3327 42.0654M45.6 33.2462L31.7192 36.8288M44.5846 39.6346L32.7962 30.5942" stroke="black" stroke-width="1.5" stroke-linecap="round"/>
</svg>
